{
  "accessors": [
    {
      "bufferView": 2,
      "componentType": 5126,
      "count": 2243,
      "max": [
        0.0601079985499382,
        0.18874600529670715,
        0.25512200593948364
      ],
      "min": [
        -0.060106001794338226,
        -0.18241199851036072,
        -0.0030720001086592674
      ],
      "type": "VEC3"
    },
    {
      "bufferView": 2,
      "byteOffset": 26916,
      "componentType": 5126,
      "count": 2243,
      "max": [
        0.9996704459190369,
        0.9999932050704956,
        0.9999862909317017
      ],
      "min": [
        -0.9999916553497314,
        -0.9996702075004578,
        -0.9999847412109375
      ],
      "type": "VEC3"
    },
    {
      "bufferView": 3,
      "componentType": 5126,
      "count": 2243,
      "max": [
        0.9999927878379822,
        0.9999311566352844,
        0.9970571994781494,
        1.0
      ],
      "min": [
        -0.9999932050704956,
        -0.9999285936355591,
        -0.9996517896652222,
        -1.0
      ],
      "type": "VEC4"
    },
    {
      "bufferView": 1,
      "componentType": 5126,
      "count": 2243,
      "max": [
        0.9973459839820862,
        0.9934579730033875
      ],
      "min": [
        0.003990999888628721,
        0.0030189999379217625
      ],
      "type": "VEC2"
    },
    {
      "bufferView": 0,
      "componentType": 5125,
      "count": 10800,
      "type": "SCALAR"
    },
    {
      "bufferView": 2,
      "byteOffset": 53832,
      "componentType": 5126,
      "count": 74,
      "max": [
        0.03553200140595436,
        -0.135671004652977,
        0.19544200599193573
      ],
      "min": [
        -0.035530999302864075,
        -0.1516609936952591,
        0.16425000131130219
      ],
      "type": "VEC3"
    },
    {
      "bufferView": 2,
      "byteOffset": 54720,
      "componentType": 5126,
      "count": 74,
      "max": [
        0.968292236328125,
        -0.24689804017543793,
        0.8281816244125366
      ],
      "min": [
        -0.9686148762702942,
        -0.9829434752464294,
        -0.8754057288169861
      ],
      "type": "VEC3"
    },
    {
      "bufferView": 3,
      "byteOffset": 35888,
      "componentType": 5126,
      "count": 74,
      "max": [
        0.9884302616119385,
        0.6419970393180847,
        -0.04596841707825661,
        1.0
      ],
      "min": [
        -0.9883900880813599,
        -0.9545462727546692,
        -0.45296505093574524,
        -1.0
      ],
      "type": "VEC4"
    },
    {
      "bufferView": 1,
      "byteOffset": 17944,
      "componentType": 5126,
      "count": 74,
      "max": [
        0.26350700855255127,
        0.4083310067653656
      ],
      "min": [
        0.1643660068511963,
        0.3091900050640106
      ],
      "type": "VEC2"
    },
    {
      "bufferView": 0,
      "byteOffset": 43200,
      "componentType": 5125,
      "count": 360,
      "type": "SCALAR"
    }
  ],
  "asset": {
    "extras": {
      "author": "Bernardo  Lucas (https://sketchfab.com/BernardoLucas)",
      "license": "CC-BY-4.0 (http://creativecommons.org/licenses/by/4.0/)",
      "source": "https://sketchfab.com/3d-models/cat-free-fire-e35173571d3d403fa97016681ecfee25",
      "title": "Cat free fire"
    },
    "generator": "Sketchfab-12.67.0",
    "version": "2.0"
  },
  "bufferViews": [
    {
      "buffer": 0,
      "byteLength": 44640,
      "name": "floatBufferViews",
      "target": 34963
    },
    {
      "buffer": 0,
      "byteLength": 18536,
      "byteOffset": 44640,
      "byteStride": 8,
      "name": "floatBufferViews",
      "target": 34962
    },
    {
      "buffer": 0,
      "byteLength": 55608,
      "byteOffset": 63176,
      "byteStride": 12,
      "name": "floatBufferViews",
      "target": 34962
    },
    {
      "buffer": 0,
      "byteLength": 37072,
      "byteOffset": 118784,
      "byteStride": 16,
      "name": "floatBufferViews",
      "target": 34962
    }
  ],
  "buffers": [
    {
      "byteLength": 155856,
      "uri": "scene.bin"
    }
  ],
  "images": [
    {
      "uri": "textures/material_baseColor.png"
    },
    {
      "uri": "textures/material_normal.png"
    }
  ],
  "materials": [
    {
      "doubleSided": true,
      "name": "material",
      "normalTexture": {
        "index": 1
      },
      "pbrMetallicRoughness": {
        "baseColorTexture": {
          "index": 0
        },
        "metallicFactor": 0.0,
        "roughnessFactor": 0.5
      }
    },
    {
      "doubleSided": true,
      "name": "material_1",
      "normalTexture": {
        "index": 2
      },
      "pbrMetallicRoughness": {
        "baseColorTexture": {
          "index": 0
        },
        "metallicFactor": 0.0,
        "roughnessFactor": 0.0
      }
    }
  ],
  "meshes": [
    {
      "name": "Object_0",
      "primitives": [
        {
          "attributes": {
            "NORMAL": 1,
            "POSITION": 0,
            "TANGENT": 2,
            "TEXCOORD_0": 3
          },
          "indices": 4,
          "material": 0,
          "mode": 4
        }
      ]
    },
    {
      "name": "Object_1",
      "primitives": [
        {
          "attributes": {
            "NORMAL": 6,
            "POSITION": 5,
            "TANGENT": 7,
            "TEXCOORD_0": 8
          },
          "indices": 9,
          "material": 1,
          "mode": 4
        }
      ]
    }
  ],
  "nodes": [
    {
      "children": [
        1
      ],
      "matrix": [
        1.0,
        0.0,
        0.0,
        0.0,
        0.0,
        2.220446049250313e-16,
        -1.0,
        0.0,
        0.0,
        1.0,
        2.220446049250313e-16,
        0.0,
        0.0,
        0.0,
        0.0,
        1.0
      ],
      "name": "Sketchfab_model"
    },
    {
      "children": [
        2,
        3
      ],
      "name": "cat.obj.cleaner.materialmerger.gles"
    },
    {
      "mesh": 0,
      "name": "Object_2"
    },
    {
      "mesh": 1,
      "name": "Object_3"
    }
  ],
  "samplers": [
    {
      "magFilter": 9729,
      "minFilter": 9987,
      "wrapS": 10497,
      "wrapT": 10497
    },
    {
      "magFilter": 9729,
      "minFilter": 9729,
      "wrapS": 10497,
      "wrapT": 10497
    }
  ],
  "scene": 0,
  "scenes": [
    {
      "name": "Sketchfab_Scene",
      "nodes": [
        0
      ]
    }
  ],
  "textures": [
    {
      "sampler": 0,
      "source": 0
    },
    {
      "sampler": 1,
      "source": 1
    },
    {
      "sampler": 0,
      "source": 1
    }
  ]
}
