{
  "accessors": [
    {
      "bufferView": 1,
      "componentType": 5126,
      "count": 1524,
      "max": [
        4.589538097381592,
        2.103343963623047,
        3.2799220085144043
      ],
      "min": [
        -4.589538097381592,
        -2.09391188621521,
        -3.2278690338134766
      ],
      "type": "VEC3"
    },
    {
      "bufferView": 1,
      "byteOffset": 18288,
      "componentType": 5126,
      "count": 1524,
      "max": [
        0.9999734163284302,
        0.9994421005249023,
        1.0
      ],
      "min": [
        -0.9999734163284302,
        -0.9996748566627502,
        -0.9999997615814209
      ],
      "type": "VEC3"
    },
    {
      "bufferView": 0,
      "componentType": 5125,
      "count": 9048,
      "type": "SCALAR"
    },
    {
      "bufferView": 1,
      "byteOffset": 36576,
      "componentType": 5126,
      "count": 114,
      "max": [
        2.24389910697937,
        -1.5203200578689575,
        0.33871498703956604
      ],
      "min": [
        -2.24389910697937,
        -2.0043630599975586,
        -1.3162260055541992
      ],
      "type": "VEC3"
    },
    {
      "bufferView": 1,
      "byteOffset": 37944,
      "componentType": 5126,
      "count": 114,
      "max": [
        0.8515229225158691,
        -0.45510759949684143,
        0.8696220517158508
      ],
      "min": [
        -0.8515229225158691,
        -0.9790157079696655,
        -0.8050040602684021
      ],
      "type": "VEC3"
    },
    {
      "bufferView": 0,
      "byteOffset": 36192,
      "componentType": 5125,
      "count": 576,
      "type": "SCALAR"
    }
  ],
  "asset": {
    "extras": {
      "author": "Ragat Vdoo Kaf (https://sketchfab.com/mae_bul_01)",
      "license": "CC-BY-4.0 (http://creativecommons.org/licenses/by/4.0/)",
      "source": "https://sketchfab.com/3d-models/discord-3d-logo-2v-64adfc0c5a89471fba3a0fbc412bcfe3",
      "title": "Discord 3d Logo 2v"
    },
    "generator": "Sketchfab-12.67.0",
    "version": "2.0"
  },
  "bufferViews": [
    {
      "buffer": 0,
      "byteLength": 38496,
      "name": "floatBufferViews",
      "target": 34963
    },
    {
      "buffer": 0,
      "byteLength": 39312,
      "byteOffset": 38496,
      "byteStride": 12,
      "name": "floatBufferViews",
      "target": 34962
    }
  ],
  "buffers": [
    {
      "byteLength": 77808,
      "uri": "scene.bin"
    }
  ],
  "materials": [
    {
      "doubleSided": true,
      "name": "Material.001",
      "pbrMetallicRoughness": {
        "baseColorFactor": [
          0.64,
          0.64,
          0.64,
          1.0
        ],
        "metallicFactor": 0.0,
        "roughnessFactor": 0.29300000000000004
      }
    },
    {
      "name": "Material.002",
      "pbrMetallicRoughness": {
        "baseColorFactor": [
          0.108507,
          0.181573,
          0.441609,
          1.0
        ],
        "metallicFactor": 0.0,
        "roughnessFactor": 0.604
      }
    }
  ],
  "meshes": [
    {
      "name": "Object_0",
      "primitives": [
        {
          "attributes": {
            "NORMAL": 1,
            "POSITION": 0
          },
          "indices": 2,
          "material": 0,
          "mode": 4
        }
      ]
    },
    {
      "name": "Object_1",
      "primitives": [
        {
          "attributes": {
            "NORMAL": 4,
            "POSITION": 3
          },
          "indices": 5,
          "material": 1,
          "mode": 4
        }
      ]
    }
  ],
  "nodes": [
    {
      "children": [
        1
      ],
      "matrix": [
        1.0,
        0.0,
        0.0,
        0.0,
        0.0,
        2.220446049250313e-16,
        -1.0,
        0.0,
        0.0,
        1.0,
        2.220446049250313e-16,
        0.0,
        0.0,
        0.0,
        0.0,
        1.0
      ],
      "name": "Sketchfab_model"
    },
    {
      "children": [
        2,
        3
      ],
      "name": "disk2.obj.cleaner.materialmerger.gles"
    },
    {
      "mesh": 0,
      "name": "Object_2"
    },
    {
      "mesh": 1,
      "name": "Object_3"
    }
  ],
  "scene": 0,
  "scenes": [
    {
      "name": "Sketchfab_Scene",
      "nodes": [
        0
      ]
    }
  ]
}
